<svg width="344" height="31" viewBox="0 0 344 31" fill="none" xmlns="http://www.w3.org/2000/svg">
<path d="M0.604004 30V0.599976H13.204C14.016 0.599976 14.716 0.893976 15.304 1.48198C15.892 2.06998 16.186 2.78398 16.186 3.62398V26.976C16.186 27.816 15.892 28.53 15.304 29.118C14.716 29.706 14.016 30 13.204 30H0.604004ZM4.51 26.094H10.81C11.202 26.094 11.552 25.954 11.86 25.674C12.168 25.366 12.322 25.002 12.322 24.582V6.01798C12.322 5.59798 12.168 5.24798 11.86 4.96798C11.552 4.65998 11.202 4.50598 10.81 4.50598H4.51V26.094Z" fill="white"/>
<path d="M23.5071 30V0.599976H39.1311V4.46398H27.4131V11.772H35.2251L34.3431 15.678H27.4131V26.094H39.1311V30H23.5071Z" fill="white"/>
<path d="M50.9338 30L45.1798 0.599976H49.0858L52.9918 20.466L56.8978 0.599976H60.8038L55.0078 30H50.9338Z" fill="white"/>
<path d="M78.5153 30V0.599976H91.1153C91.9273 0.599976 92.6273 0.893976 93.2153 1.48198C93.8033 2.06998 94.0973 2.78398 94.0973 3.62398V12.654C94.0973 13.494 93.8033 14.208 93.2153 14.796C92.6273 15.384 91.9273 15.678 91.1153 15.678H90.2333L94.0973 30H90.2333L86.3273 15.678H82.4213V30H78.5153ZM82.4213 11.772H88.7213C89.1133 11.772 89.4633 11.632 89.7713 11.352C90.0793 11.044 90.2333 10.68 90.2333 10.26V6.01798C90.2333 5.59798 90.0793 5.24798 89.7713 4.96798C89.4633 4.65998 89.1133 4.50598 88.7213 4.50598H82.4213V11.772Z" fill="white"/>
<path d="M101.338 30V0.599976H116.962V4.46398H105.244V11.772H113.056L112.174 15.678H105.244V26.094H116.962V30H101.338Z" fill="white"/>
<path d="M126.73 30C125.89 30 125.176 29.706 124.588 29.118C124 28.53 123.706 27.816 123.706 26.976V20.466L127.612 21.348V24.582C127.612 25.002 127.752 25.366 128.032 25.674C128.34 25.954 128.69 26.094 129.082 26.094H133.87C134.29 26.094 134.64 25.954 134.92 25.674C135.228 25.366 135.382 25.002 135.382 24.582V17.19C135.382 16.77 135.228 16.42 134.92 16.14C134.64 15.832 134.29 15.678 133.87 15.678H126.73C125.89 15.678 125.176 15.384 124.588 14.796C124 14.208 123.706 13.494 123.706 12.654V3.62398C123.706 2.78398 124 2.06998 124.588 1.48198C125.176 0.893976 125.89 0.599976 126.73 0.599976H136.264C137.104 0.599976 137.818 0.893976 138.406 1.48198C138.994 2.06998 139.288 2.78398 139.288 3.62398V8.15998L135.382 7.23598V6.01798C135.382 5.59798 135.228 5.24798 134.92 4.96798C134.64 4.65998 134.29 4.50598 133.87 4.50598H129.082C128.69 4.50598 128.34 4.65998 128.032 4.96798C127.752 5.24798 127.612 5.59798 127.612 6.01798V10.26C127.612 10.68 127.752 11.044 128.032 11.352C128.34 11.632 128.69 11.772 129.082 11.772H136.264C137.104 11.772 137.818 12.066 138.406 12.654C138.994 13.242 139.288 13.956 139.288 14.796V26.976C139.288 27.816 138.994 28.53 138.406 29.118C137.818 29.706 137.104 30 136.264 30H126.73Z" fill="white"/>
<path d="M149.469 30C148.685 30 147.999 29.706 147.411 29.118C146.823 28.53 146.529 27.802 146.529 26.934V3.66598C146.529 2.79798 146.823 2.06998 147.411 1.48198C147.999 0.893976 148.685 0.599976 149.469 0.599976H159.003C159.899 0.599976 160.627 0.893976 161.187 1.48198C161.775 2.06998 162.069 2.79798 162.069 3.66598V26.934C162.069 27.802 161.775 28.53 161.187 29.118C160.627 29.706 159.899 30 159.003 30H149.469ZM151.863 26.136H156.609C157.085 26.136 157.463 25.982 157.743 25.674C158.051 25.366 158.205 24.988 158.205 24.54V6.05998C158.205 5.58398 158.051 5.20598 157.743 4.92598C157.463 4.61798 157.085 4.46398 156.609 4.46398H151.863C151.471 4.46398 151.121 4.61798 150.813 4.92598C150.533 5.20598 150.393 5.58398 150.393 6.05998V24.54C150.393 24.988 150.533 25.366 150.813 25.674C151.121 25.982 151.471 26.136 151.863 26.136Z" fill="white"/>
<path d="M172.416 30C171.576 30 170.862 29.706 170.274 29.118C169.686 28.53 169.392 27.816 169.392 26.976V0.599976H173.298V24.624C173.298 25.016 173.438 25.366 173.718 25.674C174.026 25.954 174.39 26.094 174.81 26.094H179.556C179.976 26.094 180.326 25.954 180.606 25.674C180.914 25.366 181.068 25.016 181.068 24.624V0.599976H184.974V26.976C184.974 27.816 184.68 28.53 184.092 29.118C183.504 29.706 182.79 30 181.95 30H172.416Z" fill="white"/>
<path d="M192.621 30V0.599976H205.221C206.033 0.599976 206.733 0.893976 207.321 1.48198C207.909 2.06998 208.203 2.78398 208.203 3.62398V12.654C208.203 13.494 207.909 14.208 207.321 14.796C206.733 15.384 206.033 15.678 205.221 15.678H204.339L208.203 30H204.339L200.433 15.678H196.527V30H192.621ZM196.527 11.772H202.827C203.219 11.772 203.569 11.632 203.877 11.352C204.185 11.044 204.339 10.68 204.339 10.26V6.01798C204.339 5.59798 204.185 5.24798 203.877 4.96798C203.569 4.65998 203.219 4.50598 202.827 4.50598H196.527V11.772Z" fill="white"/>
<path d="M218.56 30C217.776 30 217.076 29.706 216.46 29.118C215.844 28.53 215.536 27.816 215.536 26.976V3.62398C215.536 2.81198 215.844 2.11198 216.46 1.52398C217.076 0.907976 217.776 0.599976 218.56 0.599976H228.094C228.962 0.599976 229.676 0.907976 230.236 1.52398C230.824 2.11198 231.118 2.81198 231.118 3.62398V9.08398L227.212 9.96598V6.01798C227.212 5.62598 227.072 5.27598 226.792 4.96798C226.54 4.65998 226.19 4.50598 225.742 4.50598H220.954C220.562 4.50598 220.212 4.65998 219.904 4.96798C219.596 5.27598 219.442 5.62598 219.442 6.01798V24.582C219.442 25.03 219.596 25.394 219.904 25.674C220.212 25.954 220.562 26.094 220.954 26.094H225.742C226.19 26.094 226.54 25.954 226.792 25.674C227.072 25.394 227.212 25.03 227.212 24.582V21.516L231.118 20.592V26.976C231.118 27.816 230.824 28.53 230.236 29.118C229.676 29.706 228.962 30 228.094 30H218.56Z" fill="white"/>
<path d="M238.531 30V0.599976H254.155V4.46398H242.437V11.772H250.249L249.367 15.678H242.437V26.094H254.155V30H238.531Z" fill="white"/>
<path d="M263.923 30C263.083 30 262.369 29.706 261.781 29.118C261.193 28.53 260.898 27.816 260.898 26.976V20.466L264.805 21.348V24.582C264.805 25.002 264.945 25.366 265.225 25.674C265.533 25.954 265.883 26.094 266.275 26.094H271.062C271.482 26.094 271.833 25.954 272.113 25.674C272.421 25.366 272.575 25.002 272.575 24.582V17.19C272.575 16.77 272.421 16.42 272.113 16.14C271.833 15.832 271.482 15.678 271.062 15.678H263.923C263.083 15.678 262.369 15.384 261.781 14.796C261.193 14.208 260.898 13.494 260.898 12.654V3.62398C260.898 2.78398 261.193 2.06998 261.781 1.48198C262.369 0.893976 263.083 0.599976 263.923 0.599976H273.457C274.297 0.599976 275.011 0.893976 275.599 1.48198C276.187 2.06998 276.48 2.78398 276.48 3.62398V8.15998L272.575 7.23598V6.01798C272.575 5.59798 272.421 5.24798 272.113 4.96798C271.833 4.65998 271.482 4.50598 271.062 4.50598H266.275C265.883 4.50598 265.533 4.65998 265.225 4.96798C264.945 5.24798 264.805 5.59798 264.805 6.01798V10.26C264.805 10.68 264.945 11.044 265.225 11.352C265.533 11.632 265.883 11.772 266.275 11.772H273.457C274.297 11.772 275.011 12.066 275.599 12.654C276.187 13.242 276.48 13.956 276.48 14.796V26.976C276.48 27.816 276.187 28.53 275.599 29.118C275.011 29.706 274.297 30 273.457 30H263.923Z" fill="white"/>
<path d="M293.924 30.042L299.846 0.641975H303.668L309.506 30.042H305.6L304.466 24.54H298.88L297.83 30.042H293.924ZM299.636 20.676H303.794L301.778 10.218L299.636 20.676Z" fill="white"/>
<path d="M316.374 30V0.599976H328.974C329.786 0.599976 330.486 0.893976 331.074 1.48198C331.69 2.06998 331.998 2.78398 331.998 3.62398V12.654C331.998 13.494 331.69 14.208 331.074 14.796C330.486 15.384 329.786 15.678 328.974 15.678H320.28V30H316.374ZM320.28 11.772H326.58C327 11.772 327.35 11.632 327.63 11.352C327.938 11.044 328.092 10.68 328.092 10.26V5.97598C328.092 5.58398 327.938 5.24798 327.63 4.96798C327.35 4.65998 327 4.50598 326.58 4.50598H320.28V11.772Z" fill="white"/>
<path d="M339.41 30V0.599976H343.316V30H339.41Z" fill="white"/>
</svg>
