<svg width="130" height="41" viewBox="0 0 130 41" fill="none" xmlns="http://www.w3.org/2000/svg">
<g clip-path="url(#clip0_1993_2)">
<path d="M59.3414 28.2591C58.6728 28.9522 57.8698 29.5017 56.9818 29.8742C56.0937 30.2468 55.139 30.4343 54.176 30.4256C53.3627 30.4502 52.553 30.3081 51.7968 30.0079C51.0406 29.7077 50.3538 29.2559 49.7788 28.6802C48.7342 27.5906 48.133 26.0348 48.133 24.1802C48.133 20.4676 50.5502 17.9282 54.176 17.9282C55.1484 17.9145 56.112 18.1157 56.9976 18.5174C57.8833 18.9192 58.6694 19.5115 59.2997 20.2521L62.4369 17.4782C60.3925 14.9968 57.0753 13.7142 53.9253 13.7142C47.7602 13.7142 43.3887 17.9636 43.3887 24.2154C43.3887 27.3076 44.4751 29.9113 46.3073 31.7499C48.1394 33.5884 50.7495 34.6685 53.7613 34.6685C57.6731 34.6685 60.7943 33.0806 62.5461 31.0845L59.3414 28.2591Z" fill="white"/>
<path d="M65.3828 5.78711H70.0532V34.34H65.3828V5.78711Z" fill="white"/>
<path d="M92.5498 25.8021C92.6268 25.1803 92.6696 24.5546 92.6783 23.9281C92.6783 18.0074 88.8017 13.7194 82.807 13.7194C81.4849 13.6934 80.1714 13.9384 78.9475 14.4392C77.7237 14.9401 76.6151 15.6862 75.6905 16.6316C73.9387 18.4701 72.8877 21.0738 72.8877 24.1788C72.8877 30.5078 77.3491 34.6735 83.2636 34.6735C87.2331 34.6735 90.0907 33.0664 91.804 30.8872L88.744 28.1774L88.5929 28.0489C87.9858 28.8083 87.2117 29.4176 86.3309 29.8296C85.4501 30.2415 84.4864 30.445 83.5143 30.4242C80.5121 30.4242 78.3455 28.6724 77.7284 25.8021H92.5498ZM77.8056 22.0541C78.0141 21.1493 78.4412 20.3095 79.0495 19.608C79.5557 19.0566 80.1751 18.6209 80.8651 18.3307C81.5553 18.0406 82.2999 17.9029 83.0481 17.927C85.716 17.927 87.3874 19.5952 87.9628 22.0541H77.8056Z" fill="white"/>
<path d="M107.115 13.6582V18.8654C106.575 18.8237 106.032 18.7818 105.701 18.7818C102.165 18.7818 100.159 21.3212 100.159 24.6544V34.3393H95.4951V13.9475H100.159V17.0364H100.201C101.786 14.87 104.058 13.6647 106.533 13.6647L107.115 13.6582Z" fill="white"/>
<path d="M117.99 25.7995L114.618 29.5507V34.34H109.951V5.78711H114.618V23.3019L122.947 14.0126H128.488L121.16 22.2187L128.617 34.34H123.368L118.077 25.7995H117.99Z" fill="white"/>
<path d="M32.2738 5.33642L27.4104 10.1997C27.2576 10.3523 27.0579 10.4493 26.8435 10.4749C26.6289 10.5006 26.4121 10.4534 26.2276 10.3411C24.3146 9.18703 22.1083 8.61145 19.8751 8.6839C17.642 8.75634 15.4777 9.47369 13.6435 10.7493C12.5154 11.5346 11.5358 12.5141 10.7506 13.6422C9.47644 15.4776 8.75977 17.642 8.68677 19.8751C8.61378 22.1083 9.18757 24.3149 10.3391 26.2296C10.4506 26.4138 10.4973 26.6299 10.4717 26.8438C10.4461 27.0576 10.3496 27.2566 10.1977 27.4092L5.33442 32.2724C5.2365 32.371 5.11842 32.4473 4.98827 32.4959C4.85813 32.5447 4.71902 32.5647 4.58042 32.5547C4.44183 32.5446 4.30705 32.5047 4.18532 32.4377C4.06358 32.3707 3.95777 32.2782 3.87513 32.1664C1.24379 28.5495 -0.116086 24.1633 0.00776978 19.6923C0.131626 15.2213 1.73224 10.917 4.55978 7.45143C5.42299 6.39109 6.39232 5.42174 7.45268 4.55854C10.918 1.73177 15.2216 0.131625 19.692 0.00777183C24.1623 -0.116081 28.5478 1.24333 32.1644 3.87388C32.277 3.95625 32.3702 4.06204 32.4377 4.18394C32.5054 4.30584 32.5458 4.44093 32.5562 4.57995C32.5667 4.71897 32.5468 4.85859 32.498 4.98918C32.4492 5.11977 32.3727 5.23824 32.2738 5.33642Z" fill="url(#paint0_linear_1993_2)"/>
<path d="M32.2692 35.1656L27.4058 30.3023C27.253 30.1497 27.0533 30.0528 26.8389 30.0271C26.6245 30.0014 26.4075 30.0485 26.223 30.1608C24.4192 31.2489 22.3525 31.8241 20.246 31.8241C18.1393 31.8241 16.0727 31.2489 14.2689 30.1608C14.0844 30.0485 13.8675 30.0014 13.653 30.0271C13.4385 30.0528 13.2389 30.1497 13.086 30.3023L8.22275 35.1656C8.12075 35.2636 8.04159 35.3829 7.99087 35.515C7.94014 35.647 7.9191 35.7886 7.92923 35.9298C7.93935 36.0709 7.98039 36.208 8.04946 36.3314C8.11851 36.455 8.21388 36.5617 8.32882 36.6441C11.7906 39.1629 15.9616 40.5196 20.2428 40.5196C24.5239 40.5196 28.6948 39.1629 32.1567 36.6441C32.272 36.5622 32.3679 36.4558 32.4376 36.3326C32.5072 36.2094 32.5489 36.0724 32.5597 35.9313C32.5703 35.7901 32.5499 35.6483 32.4998 35.5161C32.4495 35.3838 32.3708 35.2641 32.2692 35.1656Z" fill="white"/>
<path d="M20.2556 26.0377C23.4509 26.0377 26.0414 23.4473 26.0414 20.2518C26.0414 17.0565 23.4509 14.4661 20.2556 14.4661C17.0601 14.4661 14.4697 17.0565 14.4697 20.2518C14.4697 23.4473 17.0601 26.0377 20.2556 26.0377Z" fill="white"/>
</g>
<defs>
<linearGradient id="paint0_linear_1993_2" x1="27.703" y1="-2.96942" x2="-13.3119" y2="38.0486" gradientUnits="userSpaceOnUse">
<stop stop-color="#17CCFC"/>
<stop offset="0.5" stop-color="#5D31FF"/>
<stop offset="1" stop-color="#F35AFF"/>
</linearGradient>
<clipPath id="clip0_1993_2">
<rect width="130" height="40.5195" fill="white"/>
</clipPath>
</defs>
</svg>
